<?xml version="1.0" encoding="utf-8"?>
<!-- Generator: Adobe Illustrator 25.2.0, SVG Export Plug-In . SVG Version: 6.00 Build 0)  -->
<svg version="1.1" id="Layer_1" xmlns="http://www.w3.org/2000/svg" xmlns:xlink="http://www.w3.org/1999/xlink" x="0px" y="0px"
	 viewBox="0 0 364.27 513.84" style="enable-background:new 0 0 364.27 513.84;" xml:space="preserve">
<style type="text/css">
	.st0{fill:#F37D37;}
	.st1{fill:#FFFFFF;}
</style>
<g>
	<path id="XMLID_443_" class="st0" d="M51.19,166.12c1.53,0.08,3.4-2.29,6.92-9.79c7.29-15.54,12.34-33.2,17.5-49.75
		c6.67-21.37,12.1-43.25,20.98-63.85c5.02-11.65,12.01-35.76,27.35-36.54c12.18-0.62,22.9,8.14,34.42,10.13
		c9.17,1.58,16.27-2.19,24.63-5.94c43.53-19.48,58.26-13.06,72.59,31.76c12.46,38.95,30.03,75.19,51.54,110.16
		c28.07,45.62,51.6,93.96,56.41,148.51c2.81,31.8-2.95,63.19-11.31,93.93c-1.9,6.97-7.71,19.46-16.23,19.56
		c-6.14,0.07-10.61-8.94-16.89-7.53c-6.2,1.4-4.99,11.54-6.61,16.26c-24.21,70.63-115.3,112.89-182.79,78.74
		c-5.8-2.93-11.49-6.09-17.05-9.47c-49.14-29.93-83.52-77.08-100.59-131.71C-9.2,292.54-1.62,229.24,28.92,164.78
		c1.96-4.14,4.99-8.36,10.84-7.44C46.96,158.49,48.56,165.98,51.19,166.12"/>
	<path id="XMLID_442_" d="M169.79,466.89c3.34,5.81,11.04,8.35,5.67,15.45c-4.2,5.56-9.8,4.87-15.48,3.74
		c-22.11-4.43-38.87-17.05-51.31-35.25c-65.86-96.41-33.65-204.02,15.17-298.42c5.98-11.57,16.47-16.41,28.33-19.26
		c8.71-2.09,17.78-3.05,25.81-7.37c6.54-3.52,12.92-6.4,10.25-16.88c-2.1-8.24,5.22-11.36,12.54-11.51
		c9.19-0.18,16.31,4.78,22.22,11.12c43.13,46.29,65.45,92.14,71.27,155.18c1.49,16.19,1.33,34.7,0,50.94
		c-4.57,56.06-25.87,109.6-76.14,139.71C203.57,463.05,188.76,469.55,169.79,466.89"/>
	<path id="XMLID_441_" class="st1" d="M212.96,414.75c1.93,2.33,3.89,4.99,4.14,5.4c2.38,3.91,4.29,7.95,9.7,6.1
		c8.35-2.86,5.78-11.98,5.78-18.75c0-8.96-0.6-17.96-1.51-26.88c-0.43-4.13,2.15-11.36-4.95-11.13c-7.67,0.25-4.81,7.64-5.32,12.36
		c-0.49,4.47,3.36,17.31-3.97,17.06c-3.57-0.12-5.48-4.52-6.66-7.22c-1.85-4.27-3.23-16.02-10.4-13.17
		c-3.97,1.57-4.82,5.75-4.14,9.67c2.11,12.11,4.5,24.15,3.16,36.59c-0.3,2.81,0.77,5.83,4.25,6.37c9.31,1.43,5.76-14.89,6.01-19.86
		C209.1,410.35,211.01,412.39,212.96,414.75"/>
	<path id="XMLID_440_" class="st1" d="M142.96,314.54c0.15,0,0.3,0,0.46,0c0-8.01-0.53-16.07,0.16-24.03
		c0.46-5.28,6.16-10.01,11.66-9.21c7.95,1.16,9.17,12.13,4.91,17.04c-1.46,1.69-3.77,2.65-5.72,3.9c-2.61,1.67-7.32,2.5-5.72,6.56
		c1.81,4.61,6.29,2.63,9.94,1.82c12.88-2.87,16.73-12.55,18-24.04c2.55-23.08-34.93-24.38-46.85-11.9
		c-5.41,5.66-4.1,13.13-3.96,20.2c0.23,11.73-0.83,24.15,0.65,35.7c0.46,3.62,1.01,9.6,4.31,11.97c5.5,3.96,12.14-0.55,12.16-6.76
		C142.98,328.71,142.96,321.62,142.96,314.54"/>
	<path id="XMLID_439_" class="st1" d="M142.96,230.64c0.15,0,0.3,0,0.46,0c0-8.01-0.53-16.07,0.16-24.03
		c0.46-5.28,6.16-10.01,11.66-9.21c7.95,1.15,9.17,12.13,4.91,17.04c-1.46,1.69-3.77,2.65-5.72,3.9c-2.61,1.67-7.32,2.5-5.72,6.56
		c1.81,4.61,6.29,2.63,9.94,1.82c12.88-2.87,16.73-12.55,18-24.04c2.55-23.08-34.93-24.38-46.85-11.9
		c-5.41,5.66-4.1,13.13-3.96,20.2c0.23,11.73-0.83,24.15,0.65,35.7c0.46,3.62,1.01,9.6,4.31,11.97c5.5,3.96,12.14-0.55,12.16-6.76
		C142.98,244.81,142.96,237.72,142.96,230.64"/>
	<path id="XMLID_438_" class="st1" d="M127.2,359.92c-2.48,2.69-3.96,6.41-2.85,9.62c3.4,9.89,9.11,14.82,15.61,22.59
		c3.38,4.05,4.61,9.12,4.41,14.31c-0.23,5.96-4.36,10.59-5.86,16.51c-1.27,5.02-5.82,11.89,1.74,14.77
		c7.21,2.74,9.35-4.22,11.26-9.58c6.5-18.19,13.17-36.33,19.15-54.69c1.52-4.67,7.33-11.23-0.46-14.86
		c-8.24-3.84-9.8,4.18-12.69,9.4c-1.82,3.3-2.4,11.38-6.17,13.18c-4.47,2.13-7.75-4.79-9.27-8.24c-1.83-4.18-0.3-8.08-1.77-11.96
		C137.63,353.94,131.15,355.63,127.2,359.92"/>
	<path id="XMLID_437_" class="st1" d="M171.41,405.92c-0.34,6.04-0.69,12.08-1.02,18.12c-0.24,4.35,1.27,7.37,6.17,7.19
		c4.14-0.15,5.52-2.86,5.42-6.61c-0.15-6.04-0.51-12.08-0.44-18.11c0.05-3.79,0.87-8.67-3.71-9.24
		C172.59,396.61,171.34,401.36,171.41,405.92"/>
	<path id="XMLID_436_" class="st1" d="M187.17,382.86c0.27-4.28-1.16-7.53-5.8-7.79c-5.98-0.33-7.96,3.56-8.12,8.83
		c-0.13,4.09,0.95,7.48,5.78,7.76C185.19,392.01,186.81,387.94,187.17,382.86"/>
	<path id="XMLID_435_" d="M165.65,99.12c0.51-0.09,4.66-1.35,8.83-1.42c3.87-0.06,7.47,1.82,8.63,6c1.28,4.58-1.75,6.87-5.38,8.61
		c-9.75,4.67-19.45,9.46-29.27,13.97c-3.47,1.59-7.39,2.52-10.31-1.19c-3.23-4.1-1.7-8.08,1.19-11.53
		C145.29,106.44,153.28,102.56,165.65,99.12"/>
	<path id="XMLID_434_" d="M221.34,479.93c0.41-0.32,4.14-2.54,6.96-5.62c2.62-2.86,3.59-6.89,1.18-10.74
		c-2.64-4.21-6.41-3.57-10.15-2.08c-10.06,4-20.17,7.87-30.15,12.04c-3.53,1.48-6.85,3.75-5.97,8.58c0.97,5.33,5.03,7.01,9.58,7.29
		C202.19,490,210.48,486.76,221.34,479.93"/>
	<path id="XMLID_431_" class="st1" d="M222.89,313.37c0.31,5.79,0.78,13.8,1.14,21.81c0.17,3.73,0.83,8.07-4.5,8.78
		c-5.48,0.73-5.55-4.1-6.54-7.46c-0.65-2.21-0.15-4.73-0.61-7.02c-1.44-7.09-0.95-11.65-9.9-11.24c-6.25,0.29-11.02,4.25-13.47,9.88
		c-2.09,4.8-4.26,15.63-11.76,12.1c-9.78-4.59,0.96-18.41,4.05-24.38c6.05-11.67,10.95-23.89,16.47-35.81
		c2.95-6.38,7.35-11.76,15.2-9.78c7.42,1.88,9.84,8.18,9.9,15.35C222.96,294.11,222.89,302.62,222.89,313.37 M209.59,283.82
		c-7.57,9.77-10.59,19.15-14.42,28.77C213,309.23,214.55,306.38,209.59,283.82"/>
	<path id="XMLID_428_" class="st1" d="M219.62,227.96c0.31,5.79,0.78,13.8,1.14,21.81c0.17,3.73,0.83,8.07-4.5,8.78
		c-5.48,0.73-5.55-4.1-6.54-7.46c-0.65-2.21-0.15-4.73-0.61-7.02c-1.44-7.09-0.95-11.65-9.9-11.24c-6.25,0.29-11.02,4.25-13.47,9.88
		c-2.08,4.8-4.26,15.63-11.76,12.1c-9.78-4.59,0.96-18.41,4.05-24.38c6.05-11.67,10.95-23.89,16.47-35.81
		c2.95-6.38,7.34-11.76,15.2-9.78c7.42,1.88,9.84,8.18,9.9,15.35C219.69,208.71,219.62,217.21,219.62,227.96 M206.32,198.41
		c-7.57,9.77-10.59,19.15-14.42,28.77C209.73,223.82,211.28,220.97,206.32,198.41"/>
</g>
</svg>
